{"title":"Race 2 (2013) - Hindi - Xvid - DvdScr Rip - AC3 - E-subs -[TDT]","uid":8075144,"size":945033075,"categoryP":"video","categoryS":"movies","magnet":"?xt=urn:btih:7f4c1d8f7754944bf2f680598b7b901b4479b09d&amp;dn=Race+2+%282013%29+-+Hindi+-+Xvid+-+DvdScr+Rip+-+AC3+-+E-subs+-%5BTDT%5D&amp;tr=udp%3A%2F%2Ftracker.openbittorrent.com%3A80&amp;tr=udp%3A%2F%2Fopen.demonii.com%3A1337&amp;tr=udp%3A%2F%2Ftracker.coppersurfer.tk%3A6969&amp;tr=udp%3A%2F%2Fexodus.desync.com%3A6969","seeders":6,"leechers":1,"uploader":"HDvideos","files":5,"time":1359367567,"description":"mastitorrents.com\n  &lt;a href=&quot;\nhttp://mastitorrents.com/forums/index.php&quot; rel=&quot;nofollow&quot; target=&quot;_NEW&quot;&gt;\nhttp://mastitorrents.com/forums/index.php&lt;/a&gt;\n  &lt;a href=&quot;\nhttp://thepiratebay.se/user/HDvideos/0/7&quot; rel=&quot;nofollow&quot; target=&quot;_NEW&quot;&gt;\nhttp://thepiratebay.se/user/HDvideos/0/7&lt;/a&gt;\n\nRace 2 (2013) - Hindi - Xvid - DvdScr Rip - AC3 - E-subs -[TDT]\n\nGeneral\nComplete name : Race 2 (2013) - Xvid - DvdScr Rip - AC3 - E-subs -[TDT].avi\nIMDB : Race 2 (2013) - IMDb\nFormat : AVI\nFile size : 896 MiB\nDuration : 2h 22mn\nOverall bit rate : 881 Kbps\nSource : DvdSCR @ obaid2k13\nRipper : KingFisheR [~TDT~].\n\nVideo\n\nCodec ID : XVID\nDuration : 2h 22mn\nBit rate : 744 Kbps\nWidth : 688 pixels\nHeight : 288 pixels\nDisplay aspect ratio : 2.40:1\nFrame rate : 23.976 fps\nScan type : Progressive\nBits/(Pixel*Frame) : 0.157\nStream size : 756 MiB (84%)\n\nAudio\n\nFormat : AC-3\nDuration : 2h 22mn\nBit rate mode : Constant\nBit rate : 128 Kbps\nChannel(s) : 2 channels\nChannel positions : Front: L R\nSampling rate : 48.0 KHz\nStream size : 130 MiB (15%)\n\nScreens: &lt;a href=&quot;\nhttp://img845.imageshack.us/img845/3425/50015362.png&quot; rel=&quot;nofollow&quot; target=&quot;_NEW&quot;&gt;\nhttp://img845.imageshack.us/img845/3425/50015362.png&lt;/a&gt; &lt;a href=&quot;\nhttp://img715.imageshack.us/img715/4140/55231721.png&quot; rel=&quot;nofollow&quot; target=&quot;_NEW&quot;&gt;\nhttp://img715.imageshack.us/img715/4140/55231721.png&lt;/a&gt; &lt;a href=&quot;\nhttp://img22.imageshack.us/img22/3011/10321376.png&quot; rel=&quot;nofollow&quot; target=&quot;_NEW&quot;&gt;\nhttp://img22.imageshack.us/img22/3011/10321376.png&lt;/a&gt; &lt;a href=&quot;\nhttp://img850.imageshack.us/img850/5373/41858837.png&quot; rel=&quot;nofollow&quot; target=&quot;_NEW&quot;&gt;\nhttp://img850.imageshack.us/img850/5373/41858837.png&lt;/a&gt; &lt;a href=&quot;\nhttp://img22.imageshack.us/img22/9966/46898769.png&quot; rel=&quot;nofollow&quot; target=&quot;_NEW&quot;&gt;\nhttp://img22.imageshack.us/img22/9966/46898769.png&lt;/a&gt; &lt;a href=&quot;\nhttp://img69.imageshack.us/img69/7489/77054502.png&quot; rel=&quot;nofollow&quot; target=&quot;_NEW&quot;&gt;\nhttp://img69.imageshack.us/img69/7489/77054502.png&lt;/a&gt; &lt;a href=&quot;\nhttp://img198.imageshack.us/img198/2172/75270655.png&quot; rel=&quot;nofollow&quot; target=&quot;_NEW&quot;&gt;\nhttp://img198.imageshack.us/img198/2172/75270655.png&lt;/a&gt; &lt;a href=&quot;\nhttp://img268.imageshack.us/img268/8499/75997740.png&quot; rel=&quot;nofollow&quot; target=&quot;_NEW&quot;&gt;\nhttp://img268.imageshack.us/img268/8499/75997740.png&lt;/a&gt; &lt;a href=&quot;\nhttp://img820.imageshack.us/img820/9127/48609006.png&quot; rel=&quot;nofollow&quot; target=&quot;_NEW&quot;&gt;\nhttp://img820.imageshack.us/img820/9127/48609006.png&lt;/a&gt; &lt;a href=&quot;\nhttp://img19.imageshack.us/img19/8708/76614433.png&quot; rel=&quot;nofollow&quot; target=&quot;_NEW&quot;&gt;\nhttp://img19.imageshack.us/img19/8708/76614433.png&lt;/a&gt; &lt;a href=&quot;\nhttp://img593.imageshack.us/img593/2853/92705519.png&quot; rel=&quot;nofollow&quot; target=&quot;_NEW&quot;&gt;\nhttp://img593.imageshack.us/img593/2853/92705519.png&lt;/a&gt; &lt;a href=&quot;\nhttp://img822.imageshack.us/img822/8073/37665927.png&quot; rel=&quot;nofollow&quot; target=&quot;_NEW&quot;&gt;\nhttp://img822.imageshack.us/img822/8073/37665927.png&lt;/a&gt; &lt;a href=&quot;\nhttp://img825.imageshack.us/img825/1871/61694333.png&quot; rel=&quot;nofollow&quot; target=&quot;_NEW&quot;&gt;\nhttp://img825.imageshack.us/img825/1871/61694333.png&lt;/a&gt; &lt;a href=&quot;\nhttp://img39.imageshack.us/img39/1088/64138352.png&quot; rel=&quot;nofollow&quot; target=&quot;_NEW&quot;&gt;\nhttp://img39.imageshack.us/img39/1088/64138352.png&lt;/a&gt;","torrent":{"xt":"urn:btih:7f4c1d8f7754944bf2f680598b7b901b4479b09d","amp;dn":"Race+2+%282013%29+-+Hindi+-+Xvid+-+DvdScr+Rip+-+AC3+-+E-subs+-%5BTDT%5D","amp;tr":["udp%3A%2F%2Ftracker.openbittorrent.com%3A80","udp%3A%2F%2Fopen.demonii.com%3A1337","udp%3A%2F%2Ftracker.coppersurfer.tk%3A6969","udp%3A%2F%2Fexodus.desync.com%3A6969"],"infoHash":"7f4c1d8f7754944bf2f680598b7b901b4479b09d","infoHashBuffer":{"type":"Buffer","data":[127,76,29,143,119,84,148,75,242,246,128,89,139,123,144,27,68,121,176,157]},"announce":[],"urlList":[]}}